<svg width="1592" height="404" viewBox="0 0 1592 404" fill="none" xmlns="http://www.w3.org/2000/svg">
<rect x="2" y="2" width="1588" height="400" fill="black"/>
<rect x="2" y="2" width="1588" height="400" fill="url(#paint0_radial_41_3)"/>
<rect x="2" y="2" width="1588" height="400" stroke="url(#paint1_linear_41_3)" stroke-width="4"/>
<path d="M398.588 206.82C391.427 206.82 385.249 205.563 380.056 203.048C374.917 200.479 370.981 196.898 368.248 192.306C365.569 187.659 364.23 182.247 364.23 176.07C364.23 169.893 365.569 164.508 368.248 159.916C370.981 155.269 374.917 151.689 380.056 149.174C385.249 146.659 391.427 145.402 398.588 145.402C405.695 145.402 411.79 146.659 416.874 149.174C422.013 151.689 425.921 155.269 428.6 159.916C431.333 164.508 432.7 169.893 432.7 176.07C432.7 182.247 431.333 187.659 428.6 192.306C425.921 196.953 422.013 200.533 416.874 203.048C411.735 205.563 405.64 206.82 398.588 206.82ZM398.588 193.7C404 193.7 408.264 192.224 411.38 189.272C414.496 186.265 416.054 181.865 416.054 176.07C416.054 170.33 414.496 165.957 411.38 162.95C408.264 159.943 404 158.44 398.588 158.44C393.067 158.44 388.748 159.943 385.632 162.95C382.516 165.902 380.958 170.275 380.958 176.07C380.958 181.865 382.516 186.265 385.632 189.272C388.803 192.224 393.121 193.7 398.588 193.7ZM437.881 161.72H452.395L452.969 168.444H453.543C454.473 166.148 455.949 164.344 457.971 163.032C459.994 161.72 462.399 161.064 465.187 161.064C466.882 161.064 468.085 161.119 468.795 161.228V175.578C467.319 175.305 465.98 175.168 464.777 175.168C461.169 175.168 458.463 176.07 456.659 177.874C454.855 179.623 453.926 182.493 453.871 186.484V206H437.881V161.72ZM473.116 161.72H489.106V206H473.116V161.72ZM481.152 157.538C478.309 157.538 476.15 156.991 474.674 155.898C473.198 154.75 472.46 153.192 472.46 151.224C472.46 149.201 473.225 147.671 474.756 146.632C476.341 145.539 478.473 144.992 481.152 144.992C483.994 144.992 486.126 145.566 487.548 146.714C489.024 147.807 489.762 149.311 489.762 151.224C489.762 153.301 488.996 154.887 487.466 155.98C485.935 157.019 483.83 157.538 481.152 157.538ZM521.013 206.82C515.601 206.82 510.845 205.918 506.745 204.114C502.699 202.31 499.556 199.686 497.315 196.242C495.073 192.798 493.953 188.671 493.953 183.86C493.953 179.104 495.073 175.004 497.315 171.56C499.556 168.061 502.699 165.41 506.745 163.606C510.845 161.802 515.601 160.9 521.013 160.9C526.479 160.9 531.235 161.802 535.281 163.606C539.381 165.41 542.524 168.034 544.711 171.478C546.952 174.922 548.073 179.049 548.073 183.86C548.073 188.616 546.952 192.716 544.711 196.16C542.524 199.604 539.381 202.255 535.281 204.114C531.235 205.918 526.479 206.82 521.013 206.82ZM521.013 194.684C524.566 194.684 527.299 193.727 529.213 191.814C531.181 189.846 532.165 187.195 532.165 183.86C532.165 180.471 531.181 177.819 529.213 175.906C527.299 173.938 524.566 172.954 521.013 172.954C517.514 172.954 514.781 173.938 512.813 175.906C510.899 177.819 509.943 180.471 509.943 183.86C509.943 187.195 510.899 189.846 512.813 191.814C514.781 193.727 517.514 194.684 521.013 194.684ZM552.874 161.72H568.29L568.864 168.772H569.602C570.968 166.312 573.073 164.399 575.916 163.032C578.813 161.611 581.902 160.9 585.182 160.9C591.304 160.9 596.033 162.513 599.368 165.738C602.702 168.963 604.37 174.266 604.37 181.646V206H588.38V184.516C588.38 180.689 587.696 177.792 586.33 175.824C585.018 173.856 582.749 172.872 579.524 172.872C576.298 172.872 573.702 173.911 571.734 175.988C569.82 178.065 568.864 180.717 568.864 183.942V206H552.874V161.72ZM659.803 206.82C652.642 206.82 646.464 205.563 641.271 203.048C636.132 200.479 632.196 196.898 629.463 192.306C626.784 187.659 625.445 182.247 625.445 176.07C625.445 169.893 626.784 164.508 629.463 159.916C632.196 155.269 636.132 151.689 641.271 149.174C646.464 146.659 652.642 145.402 659.803 145.402C665.871 145.402 671.201 146.304 675.793 148.108C680.385 149.912 684.02 152.454 686.699 155.734C689.432 159.014 691.1 162.813 691.701 167.132H675.055C674.344 164.508 672.568 162.403 669.725 160.818C666.937 159.233 663.63 158.44 659.803 158.44C654.336 158.44 650.018 159.943 646.847 162.95C643.731 165.957 642.173 170.33 642.173 176.07C642.173 181.865 643.731 186.265 646.847 189.272C650.018 192.224 654.336 193.7 659.803 193.7C663.684 193.7 667.046 192.907 669.889 191.322C672.732 189.737 674.508 187.632 675.219 185.008H691.701C691.154 189.327 689.432 193.153 686.535 196.488C683.692 199.768 679.948 202.31 675.301 204.114C670.654 205.918 665.488 206.82 659.803 206.82ZM696.213 146.222H712.203V168.854H712.941C714.308 166.449 716.413 164.535 719.255 163.114C722.098 161.638 725.187 160.9 728.521 160.9C734.644 160.9 739.373 162.513 742.707 165.738C746.042 168.963 747.709 174.266 747.709 181.646V206H731.719V184.516C731.719 180.689 731.036 177.819 729.669 175.906C728.357 173.938 726.089 172.954 722.863 172.954C719.583 172.954 716.987 173.993 715.073 176.07C713.16 178.093 712.203 180.717 712.203 183.942V206H696.213V146.222ZM774.177 206.82C769.913 206.82 766.141 205.891 762.861 204.032C759.581 202.119 757.039 199.44 755.235 195.996C753.431 192.552 752.529 188.534 752.529 183.942C752.529 179.295 753.431 175.25 755.235 171.806C757.039 168.362 759.553 165.711 762.779 163.852C766.059 161.993 769.858 161.064 774.177 161.064C778.113 161.064 781.42 161.693 784.099 162.95C786.777 164.207 788.773 165.929 790.085 168.116H790.659L791.151 161.72H806.321V206H790.331V199.604H789.757C788.39 201.845 786.313 203.622 783.525 204.934C780.737 206.191 777.621 206.82 774.177 206.82ZM779.179 194.848C782.568 194.848 785.247 193.891 787.215 191.978C789.237 190.065 790.249 187.605 790.249 184.598V183.122C790.249 180.17 789.265 177.765 787.297 175.906C785.329 173.993 782.623 173.036 779.179 173.036C775.953 173.036 773.384 173.993 771.471 175.906C769.557 177.765 768.601 180.443 768.601 183.942C768.601 187.386 769.557 190.065 771.471 191.978C773.384 193.891 775.953 194.848 779.179 194.848ZM813.848 161.72H828.362L828.936 168.444H829.51C830.44 166.148 831.916 164.344 833.938 163.032C835.961 161.72 838.366 161.064 841.154 161.064C842.849 161.064 844.052 161.119 844.762 161.228V175.578C843.286 175.305 841.947 175.168 840.744 175.168C837.136 175.168 834.43 176.07 832.626 177.874C830.822 179.623 829.893 182.493 829.838 186.484V206H813.848V161.72ZM849.083 146.222H865.073V206H849.083V146.222ZM896.898 206.82C891.376 206.82 886.593 205.891 882.548 204.032C878.502 202.119 875.414 199.467 873.282 196.078C871.15 192.634 870.084 188.643 870.084 184.106C870.084 179.295 871.177 175.168 873.364 171.724C875.605 168.225 878.748 165.574 882.794 163.77C886.894 161.911 891.65 160.982 897.062 160.982C905.535 160.982 912.068 163.059 916.66 167.214C921.252 171.314 923.548 176.917 923.548 184.024C923.548 185.609 923.493 186.812 923.384 187.632H886.894C886.948 190.256 887.932 192.279 889.846 193.7C891.814 195.067 894.465 195.75 897.8 195.75C900.096 195.75 902.118 195.367 903.868 194.602C905.672 193.782 906.82 192.771 907.312 191.568H923.056C922.181 196.324 919.366 200.069 914.61 202.802C909.908 205.481 904.004 206.82 896.898 206.82ZM907.394 179.104C907.175 176.644 906.191 174.758 904.442 173.446C902.692 172.134 900.232 171.478 897.062 171.478C894 171.478 891.54 172.161 889.682 173.528C887.878 174.84 886.812 176.699 886.484 179.104H907.394ZM950.803 206.82C943.204 206.82 937.328 205.508 933.173 202.884C929.018 200.26 926.75 196.597 926.367 191.896H942.029C942.248 193.755 943.095 195.149 944.571 196.078C946.102 196.953 948.343 197.39 951.295 197.39C953.919 197.39 955.914 197.062 957.281 196.406C958.702 195.695 959.413 194.684 959.413 193.372C959.413 192.279 959.14 191.486 958.593 190.994C958.046 190.447 957.144 190.065 955.887 189.846C954.63 189.573 952.662 189.327 949.983 189.108C944.407 188.616 940.034 187.878 936.863 186.894C933.747 185.91 931.451 184.543 929.975 182.794C928.554 180.99 927.843 178.585 927.843 175.578C927.843 172.626 928.745 170.057 930.549 167.87C932.353 165.683 935.004 163.989 938.503 162.786C942.002 161.529 946.184 160.9 951.049 160.9C957.609 160.9 962.884 162.13 966.875 164.59C970.92 167.05 973.189 170.576 973.681 175.168H958.593C958.374 173.583 957.582 172.38 956.215 171.56C954.903 170.74 953.154 170.33 950.967 170.33C945.883 170.33 943.341 171.642 943.341 174.266C943.341 175.195 943.642 175.906 944.243 176.398C944.899 176.89 945.883 177.273 947.195 177.546C948.562 177.819 950.612 178.065 953.345 178.284C958.921 178.776 963.24 179.514 966.301 180.498C969.417 181.427 971.658 182.821 973.025 184.68C974.392 186.539 975.075 189.081 975.075 192.306C975.075 196.843 973.025 200.397 968.925 202.966C964.88 205.535 958.839 206.82 950.803 206.82ZM997.317 146.222H1035.2C1042.42 146.222 1047.77 147.725 1051.27 150.732C1054.77 153.684 1056.52 157.811 1056.52 163.114C1056.52 166.886 1055.51 170.084 1053.49 172.708C1051.52 175.277 1048.87 177.054 1045.53 178.038V178.53C1051.82 179.569 1054.96 183.259 1054.96 189.6V199.768C1054.96 201.135 1054.99 202.283 1055.04 203.212C1055.15 204.087 1055.37 205.016 1055.7 206H1038.89C1038.62 204.852 1038.48 202.829 1038.48 199.932V192.142C1038.48 189.518 1037.85 187.687 1036.59 186.648C1035.39 185.555 1033.21 185.008 1030.03 185.008H1013.8V206H997.317V146.222ZM1029.79 173.2C1033.4 173.2 1035.94 172.544 1037.41 171.232C1038.95 169.92 1039.71 168.061 1039.71 165.656C1039.71 163.141 1038.84 161.365 1037.09 160.326C1035.39 159.233 1032.96 158.686 1029.79 158.686H1013.8V173.2H1029.79ZM1062.25 161.72H1078.24V206H1062.25V161.72ZM1070.29 157.538C1067.44 157.538 1065.28 156.991 1063.81 155.898C1062.33 154.75 1061.59 153.192 1061.59 151.224C1061.59 149.201 1062.36 147.671 1063.89 146.632C1065.48 145.539 1067.61 144.992 1070.29 144.992C1073.13 144.992 1075.26 145.566 1076.68 146.714C1078.16 147.807 1078.9 149.311 1078.9 151.224C1078.9 153.301 1078.13 154.887 1076.6 155.98C1075.07 157.019 1072.97 157.538 1070.29 157.538ZM1085.79 146.222H1101.78V178.12L1107.2 173.036L1120.15 161.72H1140.08L1119.33 179.35L1140.57 206H1120.73L1110.48 192.634L1107.77 188.698L1101.78 193.864V206H1085.79V146.222ZM1165.08 206.82C1159.56 206.82 1154.77 205.891 1150.73 204.032C1146.68 202.119 1143.6 199.467 1141.46 196.078C1139.33 192.634 1138.27 188.643 1138.27 184.106C1138.27 179.295 1139.36 175.168 1141.55 171.724C1143.79 168.225 1146.93 165.574 1150.98 163.77C1155.08 161.911 1159.83 160.982 1165.24 160.982C1173.72 160.982 1180.25 163.059 1184.84 167.214C1189.43 171.314 1191.73 176.917 1191.73 184.024C1191.73 185.609 1191.67 186.812 1191.57 187.632H1155.08C1155.13 190.256 1156.11 192.279 1158.03 193.7C1160 195.067 1162.65 195.75 1165.98 195.75C1168.28 195.75 1170.3 195.367 1172.05 194.602C1173.85 193.782 1175 192.771 1175.49 191.568H1191.24C1190.36 196.324 1187.55 200.069 1182.79 202.802C1178.09 205.481 1172.19 206.82 1165.08 206.82ZM1175.58 179.104C1175.36 176.644 1174.37 174.758 1172.62 173.446C1170.87 172.134 1168.41 171.478 1165.24 171.478C1162.18 171.478 1159.72 172.161 1157.86 173.528C1156.06 174.84 1154.99 176.699 1154.67 179.104H1175.58ZM1196.7 161.72H1211.22L1211.79 168.444H1212.36C1213.29 166.148 1214.77 164.344 1216.79 163.032C1218.81 161.72 1221.22 161.064 1224.01 161.064C1225.7 161.064 1226.91 161.119 1227.62 161.228V175.578C1226.14 175.305 1224.8 175.168 1223.6 175.168C1219.99 175.168 1217.28 176.07 1215.48 177.874C1213.68 179.623 1212.75 182.493 1212.69 186.484V206H1196.7V161.72Z" fill="url(#paint2_linear_41_3)"/>
<path d="M425.76 245.84H446.92V251.16H432V258.48H445.32V263.56H432V275H425.76V245.84ZM456.98 275.36C454.5 275.36 452.606 274.64 451.3 273.2C449.993 271.76 449.34 269.667 449.34 266.92V253.56H455.22V265.36C455.22 267.093 455.54 268.4 456.18 269.28C456.846 270.16 457.886 270.6 459.3 270.6C460.74 270.6 461.873 270.107 462.7 269.12C463.553 268.107 463.98 266.867 463.98 265.4V253.56H469.86V275H464.22L463.98 271.08H463.74C463.233 272.44 462.366 273.493 461.14 274.24C459.94 274.987 458.553 275.36 456.98 275.36ZM474.895 245.84H480.775V275H474.895V245.84ZM485.833 245.84H491.713V275H485.833V245.84ZM516.086 275.36C512.219 275.36 509.246 274.507 507.166 272.8C505.086 271.067 504.032 268.747 504.006 265.84H510.366C510.392 267.333 510.886 268.507 511.846 269.36C512.832 270.187 514.326 270.6 516.326 270.6C518.006 270.6 519.299 270.307 520.206 269.72C521.139 269.107 521.606 268.173 521.606 266.92C521.606 266.067 521.406 265.4 521.006 264.92C520.606 264.44 519.939 264.053 519.006 263.76C518.072 263.467 516.672 263.16 514.806 262.84C511.339 262.307 508.779 261.387 507.126 260.08C505.472 258.747 504.646 256.84 504.646 254.36C504.646 252.547 505.099 250.973 506.006 249.64C506.939 248.307 508.259 247.28 509.966 246.56C511.672 245.84 513.699 245.48 516.046 245.48C518.286 245.48 520.246 245.84 521.926 246.56C523.606 247.28 524.899 248.293 525.806 249.6C526.739 250.907 527.206 252.427 527.206 254.16H520.926C520.872 252.8 520.379 251.8 519.446 251.16C518.512 250.52 517.312 250.2 515.846 250.2C514.352 250.2 513.192 250.493 512.366 251.08C511.539 251.64 511.126 252.467 511.126 253.56C511.126 254.333 511.326 254.947 511.726 255.4C512.126 255.853 512.806 256.227 513.766 256.52C514.752 256.813 516.206 257.12 518.126 257.44C520.152 257.76 521.859 258.187 523.246 258.72C524.632 259.253 525.779 260.147 526.686 261.4C527.619 262.627 528.086 264.333 528.086 266.52C528.086 269.213 527.046 271.36 524.966 272.96C522.912 274.56 519.952 275.36 516.086 275.36ZM539.327 275C537.461 275 536.087 274.56 535.207 273.68C534.354 272.8 533.927 271.427 533.927 269.56V258.28H530.087V253.56H533.927V247.72L539.807 247.16V253.56H544.127V258.28H539.807V268.48C539.807 269.12 539.954 269.573 540.247 269.84C540.567 270.08 541.034 270.2 541.647 270.2H544.127V275H539.327ZM555.504 275.36C553.77 275.36 552.237 274.92 550.904 274.04C549.597 273.16 548.584 271.893 547.864 270.24C547.144 268.56 546.784 266.573 546.784 264.28C546.784 261.96 547.144 259.973 547.864 258.32C548.584 256.64 549.597 255.36 550.904 254.48C552.21 253.6 553.744 253.16 555.504 253.16C557.104 253.16 558.49 253.533 559.664 254.28C560.864 255 561.69 255.96 562.144 257.16H562.464L562.704 253.56H568.264V275H562.704L562.464 271.36H562.144C561.69 272.56 560.864 273.533 559.664 274.28C558.49 275 557.104 275.36 555.504 275.36ZM557.624 270.6C559.144 270.6 560.317 270.12 561.144 269.16C561.97 268.173 562.384 266.893 562.384 265.32V263.2C562.384 261.627 561.97 260.36 561.144 259.4C560.317 258.413 559.197 257.92 557.784 257.92C556.13 257.92 554.877 258.48 554.024 259.6C553.197 260.72 552.784 262.28 552.784 264.28C552.784 266.28 553.184 267.84 553.984 268.96C554.81 270.053 556.024 270.6 557.624 270.6ZM582.733 275.36C580.6 275.36 578.733 274.907 577.133 274C575.533 273.067 574.293 271.773 573.413 270.12C572.533 268.44 572.093 266.493 572.093 264.28C572.093 262.067 572.533 260.12 573.413 258.44C574.32 256.76 575.587 255.467 577.213 254.56C578.84 253.627 580.747 253.16 582.933 253.16C584.747 253.16 586.373 253.507 587.813 254.2C589.253 254.867 590.387 255.813 591.213 257.04C592.067 258.267 592.533 259.667 592.613 261.24H586.893C586.68 260.173 586.2 259.36 585.453 258.8C584.733 258.24 583.84 257.96 582.773 257.96C581.253 257.96 580.08 258.52 579.253 259.64C578.453 260.76 578.053 262.307 578.053 264.28C578.053 266.333 578.467 267.893 579.293 268.96C580.147 270.027 581.293 270.56 582.733 270.56C583.933 270.56 584.893 270.253 585.613 269.64C586.36 269.027 586.813 268.213 586.973 267.2H592.693C592.587 268.827 592.093 270.267 591.213 271.52C590.36 272.747 589.2 273.693 587.733 274.36C586.267 275.027 584.6 275.36 582.733 275.36ZM596.379 245.84H602.339V262.44L604.099 260.4L610.459 253.56H617.699L609.459 262.04L617.859 275H610.939L606.579 268.2L605.299 265.96L602.339 268.88V275H596.379V245.84ZM629.627 245.84H642.067C644.921 245.84 647.347 246.453 649.347 247.68C651.374 248.88 652.907 250.573 653.947 252.76C654.987 254.947 655.507 257.507 655.507 260.44C655.507 263.347 654.974 265.907 653.907 268.12C652.867 270.307 651.334 272 649.307 273.2C647.307 274.4 644.894 275 642.067 275H629.627V245.84ZM641.027 269.68C646.414 269.68 649.107 266.56 649.107 260.32C649.107 257.04 648.401 254.693 646.987 253.28C645.574 251.84 643.587 251.12 641.027 251.12H635.867V269.68H641.027ZM669.408 275.4C667.222 275.4 665.328 274.947 663.728 274.04C662.155 273.133 660.955 271.867 660.128 270.24C659.302 268.587 658.888 266.653 658.888 264.44C658.888 262.147 659.302 260.16 660.128 258.48C660.982 256.773 662.182 255.467 663.728 254.56C665.275 253.627 667.088 253.16 669.168 253.16C672.422 253.16 674.928 254.133 676.688 256.08C678.448 258.027 679.328 260.613 679.328 263.84C679.328 264.187 679.302 264.76 679.248 265.56H664.648C664.648 267.293 665.075 268.627 665.928 269.56C666.782 270.493 667.942 270.96 669.408 270.96C670.502 270.96 671.395 270.747 672.088 270.32C672.782 269.867 673.262 269.253 673.528 268.48H679.088C678.768 270.587 677.715 272.267 675.928 273.52C674.168 274.773 671.995 275.4 669.408 275.4ZM673.488 261.92C673.462 260.507 673.048 259.427 672.248 258.68C671.475 257.933 670.448 257.56 669.168 257.56C667.862 257.56 666.808 257.947 666.008 258.72C665.235 259.467 664.795 260.533 664.688 261.92H673.488ZM680.668 253.56H686.988L690.308 265.84L691.508 270.52H691.748L692.948 265.84L696.268 253.56H702.628L695.308 275H687.988L680.668 253.56ZM714.447 275.4C712.261 275.4 710.368 274.947 708.768 274.04C707.194 273.133 705.994 271.867 705.168 270.24C704.341 268.587 703.928 266.653 703.928 264.44C703.928 262.147 704.341 260.16 705.168 258.48C706.021 256.773 707.221 255.467 708.768 254.56C710.314 253.627 712.128 253.16 714.208 253.16C717.461 253.16 719.968 254.133 721.728 256.08C723.488 258.027 724.368 260.613 724.368 263.84C724.368 264.187 724.341 264.76 724.288 265.56H709.688C709.688 267.293 710.114 268.627 710.968 269.56C711.821 270.493 712.981 270.96 714.447 270.96C715.541 270.96 716.434 270.747 717.128 270.32C717.821 269.867 718.301 269.253 718.568 268.48H724.128C723.808 270.587 722.754 272.267 720.968 273.52C719.208 274.773 717.034 275.4 714.447 275.4ZM718.528 261.92C718.501 260.507 718.088 259.427 717.288 258.68C716.514 257.933 715.488 257.56 714.208 257.56C712.901 257.56 711.848 257.947 711.048 258.72C710.274 259.467 709.834 260.533 709.728 261.92H718.528ZM728.059 245.84H733.939V275H728.059V245.84ZM748.557 275.36C746.423 275.36 744.543 274.92 742.917 274.04C741.29 273.16 740.023 271.893 739.117 270.24C738.237 268.56 737.797 266.573 737.797 264.28C737.797 262.067 738.223 260.12 739.077 258.44C739.93 256.76 741.157 255.467 742.757 254.56C744.383 253.627 746.317 253.16 748.557 253.16C750.69 253.16 752.557 253.613 754.157 254.52C755.783 255.4 757.037 256.68 757.917 258.36C758.823 260.013 759.277 261.987 759.277 264.28C759.277 266.493 758.85 268.44 757.997 270.12C757.143 271.773 755.903 273.067 754.277 274C752.677 274.907 750.77 275.36 748.557 275.36ZM748.517 270.6C750.01 270.6 751.183 270.067 752.037 269C752.89 267.933 753.317 266.36 753.317 264.28C753.317 262.2 752.89 260.627 752.037 259.56C751.21 258.493 750.05 257.96 748.557 257.96C747.063 257.96 745.877 258.493 744.997 259.56C744.143 260.627 743.717 262.2 743.717 264.28C743.717 266.36 744.143 267.933 744.997 269C745.85 270.067 747.023 270.6 748.517 270.6ZM763.098 253.56H768.698L768.898 257.2H769.218C769.671 256 770.498 255.027 771.698 254.28C772.898 253.533 774.285 253.16 775.858 253.16C777.591 253.16 779.111 253.6 780.418 254.48C781.751 255.36 782.778 256.64 783.498 258.32C784.245 260 784.618 261.987 784.618 264.28C784.618 266.573 784.245 268.56 783.498 270.24C782.778 271.92 781.751 273.2 780.418 274.08C779.111 274.96 777.591 275.4 775.858 275.4C774.285 275.4 772.898 275.04 771.698 274.32C770.498 273.573 769.671 272.6 769.218 271.4H768.978V281.68H763.098V253.56ZM773.618 270.64C775.245 270.64 776.471 270.08 777.298 268.96C778.151 267.84 778.578 266.28 778.578 264.28C778.578 262.28 778.165 260.72 777.338 259.6C776.538 258.48 775.338 257.92 773.738 257.92C772.218 257.92 771.045 258.413 770.218 259.4C769.391 260.387 768.978 261.667 768.978 263.24V265.36C768.978 266.933 769.391 268.213 770.218 269.2C771.071 270.16 772.205 270.64 773.618 270.64ZM798.432 275.4C796.245 275.4 794.352 274.947 792.752 274.04C791.179 273.133 789.979 271.867 789.152 270.24C788.325 268.587 787.912 266.653 787.912 264.44C787.912 262.147 788.325 260.16 789.152 258.48C790.005 256.773 791.205 255.467 792.752 254.56C794.299 253.627 796.112 253.16 798.192 253.16C801.445 253.16 803.952 254.133 805.712 256.08C807.472 258.027 808.352 260.613 808.352 263.84C808.352 264.187 808.325 264.76 808.272 265.56H793.672C793.672 267.293 794.099 268.627 794.952 269.56C795.805 270.493 796.965 270.96 798.432 270.96C799.525 270.96 800.419 270.747 801.112 270.32C801.805 269.867 802.285 269.253 802.552 268.48H808.112C807.792 270.587 806.739 272.267 804.952 273.52C803.192 274.773 801.019 275.4 798.432 275.4ZM802.512 261.92C802.485 260.507 802.072 259.427 801.272 258.68C800.499 257.933 799.472 257.56 798.192 257.56C796.885 257.56 795.832 257.947 795.032 258.72C794.259 259.467 793.819 260.533 793.712 261.92H802.512ZM812.043 253.56H817.363L817.603 257H817.803C818.657 254.52 820.63 253.28 823.723 253.28H824.923V258.8H823.603C821.683 258.8 820.27 259.227 819.363 260.08C818.457 260.907 817.977 262.147 817.923 263.8V275H812.043V253.56Z" fill="url(#paint3_linear_41_3)" fill-opacity="0.8"/>
<path d="M878.68 275.36C876.093 275.36 873.867 274.893 872 273.96C870.133 273.027 868.707 271.707 867.72 270C866.76 268.267 866.28 266.24 866.28 263.92V245.84H872.48V263.88C872.48 265.827 873.013 267.307 874.08 268.32C875.173 269.333 876.72 269.84 878.72 269.84C880.747 269.84 882.293 269.32 883.36 268.28C884.427 267.24 884.96 265.773 884.96 263.88V245.84H891.16V263.92C891.16 266.293 890.653 268.347 889.64 270.08C888.627 271.787 887.173 273.093 885.28 274C883.413 274.907 881.213 275.36 878.68 275.36ZM896.33 245.84H902.57V275H896.33V245.84ZM916.848 245.84H922.488L910.528 278.28H904.928L916.848 245.84ZM938.055 275.36C935.468 275.36 933.242 274.893 931.375 273.96C929.508 273.027 928.082 271.707 927.095 270C926.135 268.267 925.655 266.24 925.655 263.92V245.84H931.855V263.88C931.855 265.827 932.388 267.307 933.455 268.32C934.548 269.333 936.095 269.84 938.095 269.84C940.122 269.84 941.668 269.32 942.735 268.28C943.802 267.24 944.335 265.773 944.335 263.88V245.84H950.535V263.92C950.535 266.293 950.028 268.347 949.015 270.08C948.002 271.787 946.548 273.093 944.655 274C942.788 274.907 940.588 275.36 938.055 275.36ZM963.716 259.4L954.236 245.84H961.556L965.716 252.64L967.596 255.8H967.876L969.756 252.64L973.956 245.84H981.276L971.916 259.36L982.556 275H975.156L969.876 266.68L967.876 263.44H967.596L965.636 266.68L960.316 275H953.076L963.716 259.4ZM994.377 245.84H1006.82C1009.67 245.84 1012.1 246.453 1014.1 247.68C1016.12 248.88 1017.66 250.573 1018.7 252.76C1019.74 254.947 1020.26 257.507 1020.26 260.44C1020.26 263.347 1019.72 265.907 1018.66 268.12C1017.62 270.307 1016.08 272 1014.06 273.2C1012.06 274.4 1009.64 275 1006.82 275H994.377V245.84ZM1005.78 269.68C1011.16 269.68 1013.86 266.56 1013.86 260.32C1013.86 257.04 1013.15 254.693 1011.74 253.28C1010.32 251.84 1008.34 251.12 1005.78 251.12H1000.62V269.68H1005.78ZM1034.16 275.4C1031.97 275.4 1030.08 274.947 1028.48 274.04C1026.91 273.133 1025.71 271.867 1024.88 270.24C1024.05 268.587 1023.64 266.653 1023.64 264.44C1023.64 262.147 1024.05 260.16 1024.88 258.48C1025.73 256.773 1026.93 255.467 1028.48 254.56C1030.03 253.627 1031.84 253.16 1033.92 253.16C1037.17 253.16 1039.68 254.133 1041.44 256.08C1043.2 258.027 1044.08 260.613 1044.08 263.84C1044.08 264.187 1044.05 264.76 1044 265.56H1029.4C1029.4 267.293 1029.83 268.627 1030.68 269.56C1031.53 270.493 1032.69 270.96 1034.16 270.96C1035.25 270.96 1036.15 270.747 1036.84 270.32C1037.53 269.867 1038.01 269.253 1038.28 268.48H1043.84C1043.52 270.587 1042.47 272.267 1040.68 273.52C1038.92 274.773 1036.75 275.4 1034.16 275.4ZM1038.24 261.92C1038.21 260.507 1037.8 259.427 1037 258.68C1036.23 257.933 1035.2 257.56 1033.92 257.56C1032.61 257.56 1031.56 257.947 1030.76 258.72C1029.99 259.467 1029.55 260.533 1029.44 261.92H1038.24ZM1056.16 275.4C1053.31 275.4 1051.03 274.76 1049.32 273.48C1047.64 272.2 1046.78 270.507 1046.72 268.4H1052.52C1052.6 269.36 1052.98 270.08 1053.64 270.56C1054.31 271.013 1055.2 271.24 1056.32 271.24C1057.39 271.24 1058.2 271.053 1058.76 270.68C1059.32 270.28 1059.6 269.72 1059.6 269C1059.6 268.2 1059.31 267.653 1058.72 267.36C1058.16 267.04 1057.08 266.76 1055.48 266.52C1052.58 266.093 1050.48 265.4 1049.2 264.44C1047.92 263.48 1047.28 262 1047.28 260C1047.28 258.64 1047.66 257.453 1048.4 256.44C1049.18 255.4 1050.24 254.6 1051.6 254.04C1052.99 253.453 1054.58 253.16 1056.36 253.16C1058.92 253.16 1061 253.773 1062.6 255C1064.2 256.2 1065.06 257.8 1065.16 259.8H1059.36C1059.28 258.12 1058.23 257.28 1056.2 257.28C1055.27 257.28 1054.52 257.48 1053.96 257.88C1053.43 258.253 1053.16 258.787 1053.16 259.48C1053.16 260.227 1053.5 260.773 1054.16 261.12C1054.86 261.44 1056.08 261.72 1057.84 261.96C1060.56 262.307 1062.54 262.973 1063.76 263.96C1064.99 264.92 1065.6 266.427 1065.6 268.48C1065.6 270.667 1064.75 272.373 1063.04 273.6C1061.34 274.8 1059.04 275.4 1056.16 275.4ZM1069.41 253.56H1075.29V275H1069.41V253.56ZM1072.33 251.04C1071.4 251.04 1070.64 250.8 1070.05 250.32C1069.49 249.84 1069.21 249.173 1069.21 248.32C1069.21 247.467 1069.5 246.8 1070.09 246.32C1070.68 245.813 1071.42 245.56 1072.33 245.56C1073.26 245.56 1074.02 245.813 1074.61 246.32C1075.2 246.8 1075.49 247.467 1075.49 248.32C1075.49 249.173 1075.2 249.84 1074.61 250.32C1074.02 250.8 1073.26 251.04 1072.33 251.04ZM1089.19 282.08C1086.39 282.08 1084.16 281.493 1082.51 280.32C1080.85 279.147 1079.95 277.56 1079.79 275.56H1085.43C1085.56 276.28 1085.97 276.853 1086.67 277.28C1087.36 277.707 1088.24 277.92 1089.31 277.92C1091.04 277.92 1092.28 277.56 1093.03 276.84C1093.77 276.12 1094.15 275.027 1094.15 273.56V270.36H1093.87C1093.44 271.453 1092.65 272.347 1091.51 273.04C1090.36 273.707 1089.04 274.04 1087.55 274.04C1085.89 274.04 1084.44 273.627 1083.19 272.8C1081.93 271.973 1080.96 270.773 1080.27 269.2C1079.57 267.627 1079.23 265.76 1079.23 263.6C1079.23 261.44 1079.57 259.573 1080.27 258C1080.96 256.427 1081.93 255.227 1083.19 254.4C1084.44 253.573 1085.89 253.16 1087.55 253.16C1089.01 253.16 1090.32 253.493 1091.47 254.16C1092.61 254.8 1093.41 255.68 1093.87 256.8H1094.19L1094.35 253.56H1100.03V272.44C1100.03 275.827 1099.08 278.28 1097.19 279.8C1095.32 281.32 1092.65 282.08 1089.19 282.08ZM1089.75 269.28C1091.13 269.28 1092.2 268.84 1092.95 267.96C1093.72 267.08 1094.11 265.947 1094.11 264.56V262.64C1094.11 261.2 1093.72 260.053 1092.95 259.2C1092.17 258.32 1091.15 257.88 1089.87 257.88C1088.35 257.88 1087.19 258.4 1086.39 259.44C1085.61 260.453 1085.23 261.84 1085.23 263.6C1085.23 265.387 1085.6 266.787 1086.35 267.8C1087.09 268.787 1088.23 269.28 1089.75 269.28ZM1105.04 253.56H1110.68L1110.92 257.44H1111.16C1111.72 256.053 1112.6 255 1113.8 254.28C1115.02 253.533 1116.42 253.16 1118 253.16C1120.29 253.16 1122.12 253.88 1123.48 255.32C1124.86 256.733 1125.56 258.973 1125.56 262.04V275H1119.68V263.32C1119.68 261.507 1119.36 260.16 1118.72 259.28C1118.08 258.4 1117.05 257.96 1115.64 257.96C1114.17 257.96 1113.01 258.453 1112.16 259.44C1111.33 260.427 1110.92 261.64 1110.92 263.08V275H1105.04V253.56ZM1139.78 275.4C1137.6 275.4 1135.7 274.947 1134.1 274.04C1132.53 273.133 1131.33 271.867 1130.5 270.24C1129.68 268.587 1129.26 266.653 1129.26 264.44C1129.26 262.147 1129.68 260.16 1130.5 258.48C1131.36 256.773 1132.56 255.467 1134.1 254.56C1135.65 253.627 1137.46 253.16 1139.54 253.16C1142.8 253.16 1145.3 254.133 1147.06 256.08C1148.82 258.027 1149.7 260.613 1149.7 263.84C1149.7 264.187 1149.68 264.76 1149.62 265.56H1135.02C1135.02 267.293 1135.45 268.627 1136.3 269.56C1137.16 270.493 1138.32 270.96 1139.78 270.96C1140.88 270.96 1141.77 270.747 1142.46 270.32C1143.16 269.867 1143.64 269.253 1143.9 268.48H1149.46C1149.14 270.587 1148.09 272.267 1146.3 273.52C1144.54 274.773 1142.37 275.4 1139.78 275.4ZM1143.86 261.92C1143.84 260.507 1143.42 259.427 1142.62 258.68C1141.85 257.933 1140.82 257.56 1139.54 257.56C1138.24 257.56 1137.18 257.947 1136.38 258.72C1135.61 259.467 1135.17 260.533 1135.06 261.92H1143.86ZM1153.4 253.56H1158.72L1158.96 257H1159.16C1160.01 254.52 1161.98 253.28 1165.08 253.28H1166.28V258.8H1164.96C1163.04 258.8 1161.62 259.227 1160.72 260.08C1159.81 260.907 1159.33 262.147 1159.28 263.8V275H1153.4V253.56Z" fill="url(#paint4_linear_41_3)" fill-opacity="0.8"/>
<defs>
<radialGradient id="paint0_radial_41_3" cx="0" cy="0" r="1" gradientUnits="userSpaceOnUse" gradientTransform="translate(992.263 -53.8013) rotate(155.336) scale(1087.47 903.368)">
<stop offset="0.48" stop-opacity="0"/>
<stop offset="0.56" stop-color="#88BCD6" stop-opacity="0.05"/>
<stop offset="0.64" stop-color="#94BFC9" stop-opacity="0.1"/>
<stop offset="0.76" stop-color="#73E0EC" stop-opacity="0.21"/>
<stop offset="0.88" stop-color="#B4FFE1" stop-opacity="0.33"/>
<stop offset="1" stop-color="#C1FFF3" stop-opacity="0.61"/>
</radialGradient>
<linearGradient id="paint1_linear_41_3" x1="1588" y1="3.99998" x2="161.276" y2="715.413" gradientUnits="userSpaceOnUse">
<stop stop-color="#557786"/>
<stop offset="0.061637" stop-color="#072735"/>
<stop offset="0.940258" stop-color="#16323D"/>
<stop offset="1" stop-color="#E0F4FD"/>
</linearGradient>
<linearGradient id="paint2_linear_41_3" x1="363" y1="232" x2="1231.5" y2="139.518" gradientUnits="userSpaceOnUse">
<stop stop-color="#DDDDDD"/>
<stop offset="1" stop-color="#80AAB7"/>
</linearGradient>
<linearGradient id="paint3_linear_41_3" x1="624.5" y1="232" x2="624.5" y2="288" gradientUnits="userSpaceOnUse">
<stop stop-color="#B8D9FB" stop-opacity="0.8"/>
<stop offset="1" stop-color="#C6C6C6" stop-opacity="0.8"/>
</linearGradient>
<linearGradient id="paint4_linear_41_3" x1="1016" y1="232" x2="1016" y2="288" gradientUnits="userSpaceOnUse">
<stop stop-color="#B8D9FB" stop-opacity="0.8"/>
<stop offset="1" stop-color="#C6C6C6" stop-opacity="0.8"/>
</linearGradient>
</defs>
</svg>
